<svg xmlns="http://www.w3.org/2000/svg" width="256" height="256" viewBox="0 0 256 256">
<!-- SVG created with Arrow, by QuiverAI (https://quiver.ai) -->
  <path d="m249.8 109.8 0.23-0.67-16.8-8.21-0.51-0.26 8.43-17.5-0.5-0.47c-11.87-9.44-22.81-12.67-37.67-12.67-15.79 0-27.14 5.19-37.91 14.28l0.05-0.32c9.03-20.96 2.86-46.88-18-68.16l-4.5-3.22-14.59 13.2-13.54-13.49-0.28-0.32-4.13 3.01c-19.75 16.4-24.21 35.9-22.43 53.11 0.55 5.64 1.8 9.82 3.29 15.7-10.44-9.55-22.08-13.81-38.7-13.81-13.74 0-24.93 4.22-37.3 12.96l-0.69 0.52 9.09 17.11-16.8 9.21 0.23 0.82c6.47 19.31 19.08 32.45 37.15 39.75l0.43-0.28c14.96-11.33 31.46-17.79 49.9-21.53v-36.38h18.61v33.03c10.12-0.85 17.08-0.71 30.62 0v-33.03h18.61v36.41c17.82 4.09 34.18 11.21 49.56 21.66l0.45-0.14c17.08-7.5 30.76-20.25 37.7-40.31z" fill="#E6A3A9"/>
  <path d="m188.9 154.3 0.17-0.19c7.81 0 14.91-1.65 19.64-2.86-13.73-7.44-29.54-10.59-46.66-12.3v37.37h-18.61v-39.44c-10.54-0.85-19.34-0.88-30.62 0.17v39.27h-18.61v-37.1c-15.98 2.17-31.3 6.01-46.16 12.26l0.15 0.17c6.52 1.68 12.91 2.38 18.77 2.68l-0.17 0.67c-22.16 13.32-32.04 38.85-23.4 70.96l0.21 0.57 19.69-2.98 3.45 19.49h1.95c29.58-0.79 50.44-18.82 59.08-45.19 7.46 25.16 27.32 44.4 61.12 44.9h0.45l3.22-19 19.93 2.9 0.23-0.45c9.09-29.05-3.52-55.93-23.83-71.9z" fill="#E6A3A9"/>
</svg>